<svg width="380" height="397" fill="none" xmlns="http://www.w3.org/2000/svg"><g clip-path="url(#clip0)"><path d="M146.958 397.268c81.163 0 146.959-38.122 146.959-85.148 0-47.026-65.796-85.148-146.959-85.148C65.796 226.972 0 265.094 0 312.12c0 47.026 65.796 85.148 146.958 85.148z" fill="#70ABA5"/><path d="M146.958 386.793c81.163 0 146.959-38.122 146.959-85.148 0-47.026-65.796-85.148-146.959-85.148C65.796 216.497 0 254.619 0 301.645c0 47.026 65.796 85.148 146.958 85.148z" fill="#CCECEA"/><path d="M173.776 264.846l50.148 29.01c3.218 1.88 7.24 1.88 10.19 0l25.745-14.774c2.413-1.343 7.777-8.864 0-13.43l-54.707-24.712-31.376 11.013c-5.096 2.955-2.146 11.819 0 12.893z" fill="#518B8B"/><path d="M173.775 257.862l50.149 29.01c3.218 1.88 7.24 1.88 10.19 0l25.745-14.774c2.413-1.343 2.413-4.835 0-6.446l-54.976-31.696-31.108 17.997c-2.413 1.343-2.413 4.566 0 5.909z" fill="#63AFCA"/><path d="M120.141 51.304l6.168 131.08 181.284 110.934c3.487 1.88 12.068-4.029 12.068-7.789V160.358c0-3.76-1.877-7.252-5.095-9.132L131.404 45.395c-2.413-1.343-11.263 1.611-11.263 5.909z" fill="#518B8B"/><path d="M120.141 51.304V179.16c0 3.761 1.877 7.253 5.364 9.133l180.479 104.488c3.487 1.88 7.509-.537 7.509-4.298v-125.17c0-3.761-1.877-7.253-5.095-9.133L125.236 48.35c-2.145-1.344-5.095.268-5.095 2.954z" fill="#8FC6D9"/><path d="M132.209 66.346v111.74l169.216 97.773v-111.74L132.209 66.346z" fill="url(#paint0_radial)"/><path d="M192.816 226.972v27.935l36.203 20.952v-27.935l-36.203-20.952z" fill="#5AA0B0"/><path d="M229.019 275.859l5.9-3.492v-20.951l-5.9-3.492v27.935zM83.938 254.907l133.013 77.09-60.338 34.919-133.014-77.09 60.339-34.919z" fill="#518B8B"/><path d="M83.938 247.924l133.013 77.09-60.338 34.918-133.014-77.09 60.339-34.918z" fill="#63AFCA"/><path d="M85.01 267.532l-9.386-5.372 9.386-5.372 9.118 5.372-9.118 5.372zm13.41 8.058l-9.119-5.372 9.118-5.372 9.386 5.372-9.386 5.372zm13.676 7.789l-9.118-5.372 9.118-5.372 9.386 5.372-9.386 5.372zm13.677 7.79l-9.386-5.372 9.386-5.372 9.386 5.372-9.386 5.372zm13.677 8.058l-9.387-5.372 9.387-5.372 9.386 5.372-9.386 5.372zm13.676 7.79l-9.386-5.372 9.386-5.372 9.118 5.372-9.118 5.372zm13.677 7.79l-9.386-5.372 9.386-5.373 9.118 5.373-9.118 5.372zm13.409 8.058l-9.118-5.372 9.118-5.372 9.386 5.372-9.386 5.372zm13.676 7.789l-9.386-5.372 9.386-5.372 9.387 5.372-9.387 5.372zm-121.482-55.87l-9.386-5.372 9.386-5.372 9.386 5.372-9.386 5.372zm13.677 8.059l-9.386-5.372 9.386-5.641 9.386 5.641-9.386 5.372zm13.677 7.789l-9.386-5.372 9.386-5.372 9.118 5.372-9.118 5.372zm13.409 7.79l-9.118-5.373 9.118-5.372 9.386 5.372-9.386 5.373zm13.676 8.058l-9.386-5.372 9.386-5.372 9.386 5.372-9.386 5.372zm13.677 7.789l-9.386-5.372 9.386-5.372 9.386 5.372-9.386 5.372zm13.677 7.79l-9.386-5.372 9.386-5.372 9.386 5.372-9.386 5.372zm13.677 8.058l-9.386-5.372 9.386-5.372 9.118 5.372-9.118 5.372zm13.408 7.79l-9.117-5.373 9.117-5.372 9.386 5.372-9.386 5.373zM59.802 282.036l-9.117-5.372 9.117-5.372 9.386 5.372-9.386 5.372zm13.678 8.059l-9.387-5.372 9.386-5.641 9.386 5.641-9.386 5.372zm13.676 7.789l-9.386-5.372 9.386-5.372 9.386 5.372-9.386 5.372zm13.677 7.79l-9.386-5.372 9.386-5.372 9.118 5.372-9.118 5.372zm13.676 8.058l-9.386-5.372 9.386-5.641 9.118 5.641-9.118 5.372zm13.409 7.79l-9.118-5.372 9.118-5.372 9.386 5.372-9.386 5.372zm13.677 7.789l-9.386-5.372 9.386-5.372 9.386 5.372-9.386 5.372zm13.677 8.058l-9.386-5.372 9.386-5.641 9.386 5.641-9.386 5.372zm13.676 7.79l-9.386-5.372 9.386-5.372 9.386 5.372-9.386 5.372zm-107.537-48.08L38.35 283.648l9.117-5.103 22.795 13.162-8.85 5.372zm95.202 55.064l-22.795-13.162 8.85-5.372 23.062 13.43-9.117 5.104zm-27.086-15.579l-63.825-37.068 8.85-5.103 63.825 36.799-8.85 5.372z" fill="#7AD7EC"/><path d="M23.6 282.842v6.984l133.013 77.09v-6.984l-133.014-77.09z" fill="#518B8B"/><path d="M156.613 366.916v-6.984l60.338-34.919v6.984l-60.338 34.919z" fill="#406D6A"/><path opacity=".6" d="M7.509 0v152.3l157.149 92.132V90.789L7.508 0z" fill="url(#paint1_linear)"/><path d="M54.17 87.028L36.74 77.09l-.269 62.048 17.7 9.938V87.028zm26.282 30.085L63.02 106.906v47.274l17.432 10.207v-47.274zm26.549 6.715l-17.7-10.207v55.87l17.432 10.207.268-55.87zm26.281 5.909L115.85 119.53l-.268 65.271 17.431 9.939.269-65.003z" fill="#CCECEA"/><path d="M72.138 68.763l-35.667-2.417.537 1.611 34.862 2.418 23.331 38.142 33.253.268 2.414 6.716 2.414-7.521-7.509-7.253 2.145 6.447-32.449-.269-23.33-38.142z" fill="#6ABCC4"/><path opacity=".6" d="M222.851 38.41v152.301L380 282.843V129.2L222.851 38.41z" fill="url(#paint2_linear)"/><path d="M334.411 148.808c-17.163-9.938-31.108-1.88-31.108 17.728 0 19.877 13.945 43.783 31.108 53.722 17.163 9.938 31.108 1.88 31.108-17.728l-31.108-17.997v-35.725z" fill="#CCECEA"/><path d="M334.411 148.808v35.725l31.108 17.997c0-19.877-13.945-44.052-31.108-53.722z" fill="#4D88B2"/><path d="M263.613 107.174c-17.163-9.938-31.108-1.88-31.108 17.728 0 19.877 13.677 43.783 30.84 53.722 8.582 4.835 16.09 5.372 21.722 2.417 5.632-3.223 9.386-10.207 9.386-20.145 0 9.938-3.486 16.922-9.386 20.145l-21.722-37.605.268-36.262z" fill="#CCECEA"/><path d="M263.613 107.174v36.262l21.722 37.605c5.632-3.223 9.386-10.207 9.386-20.145 0-19.609-13.945-43.783-31.108-53.722z" fill="#4D88B2"/></g><defs><linearGradient id="paint1_linear" x1="7.5" y1="122.269" x2="164.553" y2="122.269" gradientUnits="userSpaceOnUse"><stop offset="0" stop-color="#2E5199"/><stop offset="1" stop-color="#AFF"/></linearGradient><linearGradient id="paint2_linear" x1="222.931" y1="160.697" x2="379.983" y2="160.697" gradientUnits="userSpaceOnUse"><stop stop-color="#AFF"/><stop offset="1" stop-color="#2E5199"/></linearGradient><radialGradient id="paint0_radial" cx="0" cy="0" r="1" gradientUnits="userSpaceOnUse" gradientTransform="matrix(95.1303 0 0 95.2843 259.33 208.141)"><stop stop-color="#6295D9"/><stop offset=".111" stop-color="#5584C7"/><stop offset=".368" stop-color="#3A62A4"/><stop offset=".61" stop-color="#274A8A"/><stop offset=".827" stop-color="#1B3B7A"/><stop offset="1" stop-color="#173675"/></radialGradient><clipPath id="clip0"><path fill="#fff" d="M0 0h380v397H0z"/></clipPath></defs></svg>