<svg width="15" height="15" fill="none" xmlns="http://www.w3.org/2000/svg"><path d="M4.088 3.125c.037.556.13 1.1.28 1.619l-.75.75a9.266 9.266 0 01-.474-2.369h.944zm6.162 7.512a7.97 7.97 0 001.625.282v.931a9.644 9.644 0 01-2.375-.469l.75-.744zM4.687 1.875H2.5a.627.627 0 00-.625.625c0 5.869 4.756 10.625 10.625 10.625a.627.627 0 00.625-.625v-2.181a.627.627 0 00-.625-.625 7.13 7.13 0 01-2.231-.357.64.64 0 00-.638.15l-1.375 1.376a9.468 9.468 0 01-4.119-4.12L5.514 5.37a.627.627 0 00.156-.638A7.1 7.1 0 015.313 2.5a.627.627 0 00-.625-.625z" fill="#A047D4"/></svg>