<svg width="179" height="77" fill="none" xmlns="http://www.w3.org/2000/svg"><path d="M166.627 0H12.373C5.513 0 0 5.529 0 12.406v36.815c0 6.877 5.514 12.406 12.373 12.406h56.483c1.48 0 2.96.54 4.035 1.483l15.197 13.08c1.21 1.08 3.093 1.08 4.303 0l15.197-13.08c1.076-.944 2.555-1.483 4.035-1.483h55.004c6.859 0 12.373-5.529 12.373-12.406V12.406C179 5.53 173.486 0 166.627 0z" fill="#63239D"/><path d="M61.46 23.464l-5.11 3.237-.808-1.349 6.321-4.045h1.345V45.58H61.46V23.464zm6.859 20.498l9.279-7.957c3.497-2.967 4.976-5.529 4.976-7.956 0-2.967-2.286-5.529-5.648-5.529-2.69 0-5.11 1.483-6.994 4.046l-1.344-1.08c2.151-3.1 5.11-4.719 8.338-4.719 4.303 0 7.396 3.236 7.396 7.147 0 3.102-1.748 5.934-5.648 9.305l-7.8 6.608h13.852v1.753H68.319v-1.618zm-35.908 2.157L18.693 35.735c-1.479-1.213-2.69-2.697-3.362-4.45-2.555-7.416 4.976-15.912 13.18-12.271.134.135.403.135.538.27l3.362 1.753 3.362-1.753c.135-.135.403-.135.538-.27 8.204-3.776 15.735 4.855 13.18 12.271-.673 1.753-1.883 3.372-3.362 4.45L32.41 46.12zm78.001-21.037v10.384c0 3.91 3.094 7.012 6.994 7.012h17.079c1.749 0 3.362.674 4.573 1.888l1.345 1.348c.672.675 2.017.27 2.017-.809V25.082c0-3.91-3.093-7.012-6.993-7.012h-18.021c-3.9 0-6.994 3.101-6.994 7.012zm41.691 15.508l1.21-1.349c1.883 2.158 4.573 3.507 7.397 3.507 3.497 0 6.321-2.832 6.321-6.204 0-3.236-2.69-5.798-6.187-5.798-1.882 0-3.9.809-5.513 2.023l-1.48-.81.404-12.271h13.583v1.753h-11.969l-.269 9.44c1.344-1.08 3.362-1.753 5.648-1.753 4.169 0 7.666 3.101 7.666 7.282 0 4.45-3.631 7.956-8.07 7.956-3.631.135-6.724-1.349-8.741-3.776z" fill="#fff"/></svg>