<svg width="109" height="64" fill="none" xmlns="http://www.w3.org/2000/svg"><path fill="#B634EF" fill-opacity=".39" d="M19 0h43v43H19z"/><path fill="url(#paint0_linear)" d="M0 8h56v56H0z"/><path d="M38.592 45.605c0 4.29-1.184 7.594-3.551 9.915-2.355 2.32-5.672 3.48-9.95 3.48h-8.314V33.3h8.895c4.125 0 7.306 1.056 9.545 3.165 2.25 2.11 3.375 5.156 3.375 9.14zm-7.207.247c0-2.356-.469-4.102-1.407-5.239-.925-1.136-2.337-1.705-4.236-1.705h-2.021v14.397h1.547c2.109 0 3.656-.61 4.64-1.828.985-1.23 1.477-3.106 1.477-5.625zM43.035 59V33.3h6.978V59h-6.978z" fill="#fff"/><path d="M67.522 59.176c-1.63 0-2.866-.44-3.71-1.319-.837-.879-1.256-2.141-1.256-3.788 0-1.652.454-2.932 1.362-3.84.908-.909 2.2-1.363 3.876-1.363 1.154 0 2.241.252 3.26.756l-1.01 2.54c-.416-.181-.8-.325-1.151-.43a3.618 3.618 0 00-1.099-.167c-.557 0-.987.216-1.292.65-.305.433-.457 1.046-.457 1.837 0 1.593.589 2.39 1.767 2.39 1.007 0 1.974-.293 2.9-.879v2.734c-.885.586-1.948.879-3.19.879zm14.587-5.177c0 1.629-.44 2.9-1.318 3.814-.873.909-2.098 1.363-3.674 1.363-1.512 0-2.716-.466-3.612-1.398-.89-.931-1.336-2.191-1.336-3.779 0-1.623.436-2.883 1.31-3.78.878-.902 2.109-1.353 3.69-1.353.98 0 1.844.208 2.594.624a4.227 4.227 0 011.731 1.793c.41.774.615 1.679.615 2.716zm-6.45 0c0 .855.113 1.509.342 1.96.228.445.612.668 1.151.668.533 0 .908-.223 1.125-.668.223-.451.334-1.105.334-1.96 0-.85-.111-1.491-.334-1.925-.222-.433-.603-.65-1.142-.65-.528 0-.906.217-1.134.65-.229.428-.343 1.07-.343 1.925zm11.423 5.177c-.71 0-1.33-.202-1.863-.607-.528-.404-.938-.999-1.231-1.784-.287-.785-.43-1.702-.43-2.75 0-1.618.324-2.884.975-3.798.65-.914 1.544-1.37 2.68-1.37.557 0 1.044.11 1.46.333.421.223.805.598 1.15 1.125h.071a16.5 16.5 0 01-.167-2.338v-2.663h3.463V59h-2.593l-.738-1.257h-.132c-.592.955-1.473 1.433-2.645 1.433zm1.406-2.716c.55 0 .938-.173 1.16-.519.229-.345.352-.879.37-1.6v-.272c0-.879-.127-1.503-.379-1.872-.252-.375-.647-.562-1.186-.562-.451 0-.803.214-1.055.641-.246.422-.369 1.026-.369 1.81 0 .774.126 1.363.378 1.767.252.405.612.607 1.081.607zm11.802 2.716c-1.659 0-2.948-.44-3.868-1.319-.914-.884-1.37-2.141-1.37-3.77 0-1.682.424-2.97 1.274-3.867.85-.903 2.062-1.354 3.638-1.354 1.5 0 2.658.393 3.472 1.178.82.78 1.231 1.904 1.231 3.375v1.53h-6.144c.023.556.226.992.606 1.309.387.316.912.474 1.574.474.603 0 1.157-.055 1.661-.167a8.436 8.436 0 001.652-.588v2.47a6.066 6.066 0 01-1.67.57c-.574.106-1.26.159-2.056.159zm-.203-7.972c-.404 0-.744.129-1.02.387-.269.252-.427.65-.474 1.195h2.953c-.011-.48-.149-.864-.413-1.151-.257-.287-.606-.43-1.046-.43z" fill="#B634EF"/><defs><linearGradient id="paint0_linear" x1="56" y1="8" x2="0" y2="64" gradientUnits="userSpaceOnUse"><stop stop-color="#8F2CC9"/><stop offset="1" stop-color="#D8A2F9"/></linearGradient></defs></svg>