<svg width="380" height="190" fill="none" xmlns="http://www.w3.org/2000/svg"><path d="M63.333 110.833C80.75 110.833 95 96.583 95 79.167 95 61.75 80.75 47.5 63.333 47.5c-17.416 0-31.666 14.25-31.666 31.667 0 17.416 14.25 31.666 31.666 31.666zm17.892 17.417c-5.858-.95-11.717-1.583-17.892-1.583-15.675 0-30.558 3.325-44.016 9.183C7.6 140.917 0 152.317 0 165.142V190h71.25v-25.492c0-13.141 3.642-25.491 9.975-36.258zm235.442-17.417c17.416 0 31.666-14.25 31.666-31.666 0-17.417-14.25-31.667-31.666-31.667C299.25 47.5 285 61.75 285 79.167c0 17.416 14.25 31.666 31.667 31.666zM380 165.142c0-12.825-7.6-24.225-19.317-29.292-13.458-5.858-28.341-9.183-44.016-9.183-6.175 0-12.034.633-17.892 1.583 6.333 10.767 9.975 23.117 9.975 36.258V190H380v-24.858zm-122.867-44.017c-18.525-8.233-41.325-14.25-67.133-14.25-25.808 0-48.608 6.175-67.133 14.25-17.1 7.6-27.867 24.7-27.867 43.383V190h190v-25.492c0-18.683-10.767-35.783-27.867-43.383zm-129.358 37.208c1.425-3.641 2.058-6.175 14.408-10.925 15.359-6.016 31.509-8.866 47.817-8.866s32.458 2.85 47.817 8.866c12.191 4.75 12.825 7.284 14.408 10.925h-124.45zM190 31.667c8.708 0 15.833 7.125 15.833 15.833S198.708 63.333 190 63.333s-15.833-7.125-15.833-15.833S181.292 31.667 190 31.667zM190 0c-26.283 0-47.5 21.217-47.5 47.5S163.717 95 190 95s47.5-21.217 47.5-47.5S216.283 0 190 0z" fill="#91FFFF" fill-opacity=".79"/></svg>