<svg width="32" height="31" fill="none" xmlns="http://www.w3.org/2000/svg"><path d="M8.375 22A1.63 1.63 0 0110 23.625a3.26 3.26 0 01-3.25 3.25c-.276 0-.536-.032-.813-.081a6.414 6.414 0 00.813-3.169A1.63 1.63 0 018.375 22zM27.339.875c-.423 0-.829.163-1.154.471l-14.56 14.56 4.469 4.469 14.56-14.56a1.618 1.618 0 000-2.291l-2.178-2.178A1.586 1.586 0 0027.34.875zM8.375 18.75A4.868 4.868 0 003.5 23.625c0 2.129-1.885 3.25-3.25 3.25 1.495 1.983 4.046 3.25 6.5 3.25 3.591 0 6.5-2.909 6.5-6.5a4.868 4.868 0 00-4.875-4.875z" fill="#B634EF"/></svg>