<svg width="41" height="23" fill="none" xmlns="http://www.w3.org/2000/svg"><path d="M40.208 4.333a3.594 3.594 0 01-3.583 3.584c-.322 0-.627-.036-.914-.126l-6.378 6.36c.09.287.125.61.125.932a3.594 3.594 0 01-3.583 3.584 3.594 3.594 0 01-3.583-3.584c0-.322.035-.645.125-.931l-4.569-4.57c-.286.09-.609.126-.931.126-.323 0-.645-.036-.932-.125l-8.152 8.17c.09.287.125.591.125.914a3.594 3.594 0 01-3.583 3.583 3.594 3.594 0 01-3.583-3.583 3.594 3.594 0 013.583-3.584c.322 0 .627.036.914.126l8.17-8.152a3.168 3.168 0 01-.126-.932 3.594 3.594 0 013.584-3.583A3.594 3.594 0 0120.5 6.125c0 .322-.036.645-.125.932l4.568 4.568c.287-.09.61-.125.932-.125.323 0 .645.036.932.125l6.36-6.378a3.045 3.045 0 01-.125-.914A3.594 3.594 0 0136.625.75a3.594 3.594 0 013.583 3.583z" fill="#B634EF"/></svg>