<svg width="541" height="300" fill="none" xmlns="http://www.w3.org/2000/svg"><g clip-path="url(#clip0)"><path d="M351.255 344.812s-.146-.19-.27-.547c-.124-.356-.393-.903-.831-1.471-.247-.714-.663-1.45-1.224-2.375-.561-.925-1.1-2.018-1.975-3.155-2.974-4.648-8.078-11.28-16.211-16.949-4.056-2.918-8.828-5.59-14.381-7.513-5.553-1.923-11.698-3.244-18.355-3.269-13.124-.197-27.894 4.327-39.443 14.214-1.542 1.329-3.105 2.826-4.479 4.177l-.212.313-.313-.212c-12.088-8.062-26.414-10.801-38.875-9.548-3.11.271-6.096.9-8.914 1.55-2.84.818-5.513 1.658-8.061 2.854-5.053 2.059-9.669 4.686-13.445 7.423-7.574 5.643-12.149 11.851-14.635 16.461-.658 1.106-1.148 2.233-1.594 3.025-.468.96-.746 1.775-.98 2.255-.257.647-.491 1.127-.535 1.462-.212.313-.234.48-.234.48l.067-.502c.044-.335.278-.815.534-1.462s.534-1.462 1.002-2.422c.468-.96.936-1.92 1.448-3.215 2.318-4.632 6.937-11.175 14.512-16.817 3.798-2.905 8.413-5.532 13.466-7.591 2.549-1.197 5.389-2.014 8.229-2.832 2.818-.65 5.994-1.424 9.104-1.695 12.483-1.421 27.145 1.362 39.379 9.614l-.526.101c1.374-1.351 2.769-2.87 4.478-4.177 11.739-10.032 26.7-14.701 39.992-14.483 6.657.026 12.97 1.368 18.523 3.292 5.553 1.923 10.47 4.785 14.526 7.703 8.279 5.858 13.215 12.468 16.167 17.283.707 1.115 1.414 2.23 1.785 3.3.561.926.955 1.829 1.202 2.543.248.713.539 1.092.641 1.616.46.401.438.569.438.569z" fill="#263238"/><path d="M375.886 227.847c3.336 7.081 8.294 13.523 14.1 18.715 3.821 3.398 9.912-.057 8.873-5.131l.022-.168a193.773 193.773 0 0021.91 19.062c4.975 3.72 11.869-.65 10.437-6.628-5.249-23.677-19.31-45.281-38.962-59.448l-16.38 33.598z" fill="#63239D"/><path opacity=".3" d="M385.511 229.967c.517 1.26 1.225 2.374 2.289 3.366 1.087.824 2.554 1.358 3.671.654 1.833-.95 2.018-3.65 3.997-4.411 2.001-.929 3.963 1.033 5.297 2.57 1.48 1.728 2.793 3.433 4.251 5.328 1.02 1.326 2.545 2.719 4.144 2.249 1.767-.449 2.243-2.77 1.982-4.677-.598-8.422-5.671-16.582-13.164-20.634l-12.467 15.555z" fill="#000"/><path d="M162.778 35.805c-5.67 6.745 1.364 33.723 20.69 69.812 19.077 35.375 43.7 57.178 43.7 57.178l125.279 105.554 27.906-32.931 16.185-19.151 27.906-32.932-113.747-95.862c-11.072-9.291-23.116-17.689-35.672-24.791-10.987-6.045-24.784-12.8-39.787-18.182-38.469-13.922-66.789-15.44-72.46-8.695z" fill="#F5F5F5"/><path d="M345.897 117.139s.19-.145.526-.101c30.677-6.004 62.546 2.281 86.528 22.467l15.061 12.711-45.858 12.348-56.257-47.425z" fill="#63239D"/><path d="M345.897 117.139s.168.022.314.212c.146.189.459.401.773.612.773.613 1.86 1.437 3.071 2.618 2.779 2.239 6.6 5.637 11.699 9.714 10.007 8.3 24.004 20.019 40.444 33.934l-.168-.022c12.916-3.407 27.073-7.161 41.777-11.183 1.409-.325 2.841-.818 4.082-1.165l-.066.502c-2.925-2.428-5.996-5.046-8.921-7.475-2.925-2.429-5.682-4.835-8.629-7.096-5.725-4.5-11.707-8.353-17.8-11.369-5.924-2.994-11.937-5.319-17.702-6.93-2.787-.878-5.619-1.421-8.428-2.132-2.664-.521-5.328-1.042-7.868-1.206-10.072-1.327-18.328-.883-23.876-.251-2.774.315-5.044.697-6.431.855-1.41.325-1.935.426-2.271.382 0 0 .168.022.526-.101s.883-.224 1.745-.281c1.387-.158 3.679-.707 6.453-1.023 5.548-.631 13.826-1.243 24.088-.061 2.54.164 5.204.685 7.868 1.206 2.641.689 5.473 1.232 8.428 2.132 5.765 1.611 11.778 3.936 17.87 6.952 6.092 3.016 12.074 6.869 17.968 11.391 2.947 2.261 5.704 4.668 8.629 7.096 2.925 2.429 5.85 4.857 8.92 7.475l.46.401-.526.101c-1.241.348-2.65.673-4.081 1.165-14.873 4.001-29.029 7.754-41.777 11.183l-.168-.022-.168-.022c-16.44-13.915-30.415-25.801-40.4-34.268-4.909-4.222-8.753-7.453-11.51-9.86-1.378-1.203-2.297-2.005-3.07-2.618-.314-.211-.628-.423-.773-.612-.504-.067-.482-.234-.482-.234z" fill="#263238"/><path d="M273.9 202.153l-.066.502c-.823 30.88 12.559 60.227 36.228 80.201l14.748 12.5 4.428-46.581-55.338-46.622z" fill="#63239D"/><path d="M273.9 202.153s.168.022.314.211c.146.19.459.401.773.613.773.613 1.692 1.415 3.093 2.451 2.611 2.217 6.623 5.469 11.386 9.502 9.839 8.278 23.858 19.83 40.152 33.555l.168.022-.022.167a9146.831 9146.831 0 01-4.045 42.375c-.177 1.339-.207 2.867-.362 4.038l-.066.503-.459-.402-8.775-7.285c-2.925-2.429-5.704-4.668-8.439-7.242-5.346-4.79-10.1-10.184-14.015-15.467-3.915-5.284-7.115-10.813-9.665-16.087-1.37-2.564-2.382-5.251-3.416-7.772-.844-2.665-1.901-5.017-2.431-7.471-2.838-9.568-3.649-17.678-3.928-23.333-.151-2.745-.032-4.942-.17-6.493.089-.669-.013-1.194.053-1.696-.168-.022-.146-.189-.146-.189-.044.335.036 1.026.049 2.22-.03 1.528.041 3.581.192 6.325.301 5.488 1.279 13.62 4.118 23.188.698 2.476 1.587 4.806 2.431 7.472 1.034 2.52 2.046 5.207 3.416 7.771 2.55 5.274 5.75 10.803 9.665 16.087 3.915 5.283 8.691 10.509 14.037 15.3 2.589 2.385 5.514 4.813 8.439 7.242l8.775 7.285-.548.269c.176-1.339.185-2.7.361-4.039 1.459-14.962 2.852-29.422 4.046-42.375l.145.19c-16.126-13.703-29.955-25.4-39.627-33.656-4.908-4.222-8.752-7.453-11.363-9.67-1.379-1.203-2.298-2.005-3.071-2.618-.314-.211-.605-.59-.773-.612-.124-.357-.292-.379-.292-.379z" fill="#263238"/><path d="M162.779 35.805c-4.589 5.014-1.254 22.48 9.367 46.866l43.456-44.675c-26.082-6.841-46.839-8.724-52.823-2.191z" fill="#63239D"/><path d="M403.356 167.105c.146.19-15.659 19.051-35.126 42.367-19.466 23.316-35.439 42.155-35.585 41.965-.146-.189 15.66-19.05 35.126-42.366 19.466-23.316 35.44-42.155 35.585-41.966zm3.464 3.521c.146.19-15.659 19.051-35.126 42.367-19.466 23.316-35.439 42.155-35.585 41.965-.146-.189 15.66-19.05 35.126-42.366 19.466-23.316 35.418-41.988 35.585-41.966zm4.012 3.253c.146.19-15.659 19.051-35.126 42.367-19.466 23.316-35.44 42.155-35.585 41.965-.146-.189 15.659-19.05 35.126-42.366 19.612-23.127 35.417-41.988 35.585-41.966zm3.99 3.421c.146.189-15.66 19.05-35.126 42.366-19.467 23.316-35.44 42.155-35.586 41.966-.146-.19 15.66-19.051 35.126-42.367 19.635-23.294 35.608-42.133 35.586-41.965zm4.179 3.274c.146.19-15.659 19.05-35.126 42.367-19.466 23.316-35.439 42.155-35.585 41.965-.146-.189 15.659-19.05 35.126-42.366 19.466-23.317 35.44-42.155 35.585-41.966z" fill="#263238"/><path d="M310.078 159.584s.145.19.627.424c.482.233 1.087.824 1.714 1.247 1.547 1.225 3.72 2.874 6.331 5.091 5.223 4.434 12.619 10.516 20.598 17.356 7.98 6.841 15.186 13.068 20.386 17.67a214.797 214.797 0 016.119 5.403c.606.591 1.211 1.181 1.67 1.582.292.379.606.591.606.591s-.146-.19-.628-.423c-.459-.401-1.087-.825-1.692-1.415-1.546-1.226-3.698-3.041-6.309-5.258-5.222-4.434-12.429-10.662-20.408-17.502-7.979-6.84-15.185-13.068-20.408-17.502-2.611-2.217-4.763-4.033-6.141-5.236-.773-.613-1.211-1.181-1.692-1.415a8.987 8.987 0 00-.773-.613z" fill="#263238"/><path d="M345.897 117.139c.146.19-15.659 19.05-35.462 42.322-19.634 23.294-35.775 42.111-35.753 41.944-.146-.19 15.66-19.051 35.462-42.323 19.444-23.149 35.585-41.965 35.753-41.943zm11.382 70.458s-.124-.357.11-.837c.067-.502.513-1.295 1.272-1.876.76-.581 2.169-.906 3.3-.416 1.299.511 2.319 1.838 2.267 3.533-.031 1.529-1.236 2.902-2.478 3.25-1.263.514-2.562.003-3.335-.61-.773-.613-1.188-1.348-1.268-2.04-.102-.524-.058-.859-.058-.859l.248.714c.102.524.539 1.092 1.312 1.705.606.591 1.759.913 2.854.376 1.073-.369 2.067-1.43 2.075-2.791.009-1.361-.866-2.498-1.829-2.966-1.131-.489-2.182-.287-2.942.294-.738.413-1.184 1.206-1.395 1.519l-.133 1.004zm-23.894-20.856s-.124-.357.11-.837c.067-.502.513-1.294 1.272-1.875.76-.581 2.169-.906 3.3-.417 1.299.512 2.319 1.838 2.267 3.534-.031 1.528-1.236 2.902-2.478 3.249-1.263.515-2.562.003-3.335-.609-.773-.613-1.188-1.349-1.268-2.04-.102-.525-.058-.859-.058-.859l.248.713c.102.524.539 1.093 1.312 1.706.605.59 1.758.912 2.854.376 1.073-.37 2.067-1.431 2.075-2.792.009-1.361-.866-2.498-1.829-2.965-1.131-.49-2.182-.288-2.942.293-.738.414-1.184 1.207-1.396 1.519l-.132 1.004zm-48.75-18.852s-.123-.357.111-.837c.066-.502.512-1.294 1.271-1.875.76-.581 2.169-.906 3.3-.417 1.299.512 2.32 1.838 2.267 3.534-.031 1.528-1.236 2.902-2.477 3.249-1.264.515-2.563.003-3.336-.61-.773-.612-1.188-1.348-1.268-2.04-.102-.524-.058-.858-.058-.858l.248.713c.102.524.539 1.093 1.312 1.705.606.591 1.759.913 2.854.376 1.073-.369 2.067-1.43 2.076-2.791.008-1.361-.867-2.498-1.83-2.965-1.131-.49-2.182-.288-2.942.293-.737.414-1.183 1.206-1.395 1.519l-.133 1.004z" fill="#263238"/><path d="M263.015 139.592c.19-.145 9.053 6.471 19.943 14.547 10.869 8.242 19.564 14.836 19.542 15.004-.19.145-9.053-6.471-19.944-14.547-11.058-8.097-19.731-14.858-19.541-15.004z" fill="#263238"/><path opacity=".3" d="M327.86 247.572s-35.651-31.429-53.96-45.419c5.604 10.614 12.016 22.866 20.469 31.301 8.62 8.458 21.396 13.887 33.491 14.118z" fill="#000"/><path d="M279.557 123.022c7.45-16.792-.167-36.437-17.013-43.878-16.846-7.442-36.542.138-43.992 16.93-7.45 16.791.167 36.436 17.013 43.878 16.846 7.441 36.542-.139 43.992-16.93z" fill="#fff"/><path d="M281.876 115.686l.066-.502.199-1.506c.088-.67.198-1.507.162-2.533-.035-1.026.119-2.198-.062-3.414-.173-2.576-.761-5.889-2.021-9.29-1.238-3.569-3.315-7.248-6.611-10.746-3.128-3.477-7.33-6.585-12.525-8.632-5.217-1.879-11.239-2.842-17.356-1.775-3.132.438-6.162 1.401-9.091 2.889-1.453.66-2.928 1.487-4.257 2.503-1.33 1.017-2.659 2.034-3.821 3.073-5.026 4.446-8.615 10.954-9.877 17.939-1.262 6.985-.342 14.257 2.624 20.267.641 1.617 1.662 2.943 2.492 4.415 1.021 1.326 1.874 2.63 3.085 3.811 2.253 2.34 4.718 4.368 7.418 5.915 5.376 3.263 11.185 4.539 16.813 4.599 5.46.038 10.593-1.329 14.806-3.498 4.192-2.002 7.632-4.784 10.044-7.531 2.411-2.747 4.319-5.56 5.321-7.982.658-1.106.98-2.255 1.28-3.237.468-.96.578-1.797.834-2.444s.323-1.15.367-1.484l.11-.837-.066.502c-.044.335-.11.837-.366 1.484-.089.67-.367 1.484-.667 2.466-.3.982-.622 2.132-1.28 3.237-1.002 2.422-2.742 5.258-5.176 8.172-2.433 2.915-5.873 5.697-10.087 7.866-4.214 2.169-9.536 3.681-15.164 3.621-5.628-.06-11.773-1.381-17.149-4.643-2.7-1.548-5.333-3.597-7.564-6.105-1.211-1.181-2.231-2.507-3.252-3.833-.831-1.472-1.852-2.798-2.493-4.415-1.471-3.089-2.563-6.468-2.939-10.093-.399-3.458-.417-7.206.236-10.866 1.451-7.13 5.041-13.638 10.279-18.397 1.184-1.206 2.681-2.2 4.01-3.217 1.475-.828 2.805-1.844 4.426-2.482 2.928-1.487 6.126-2.428 9.258-2.867 6.286-1.045 12.475-.06 17.67 1.987 5.195 2.047 9.543 5.344 12.671 8.821 3.128 3.477 5.329 7.513 6.567 11.081 1.237 3.569 1.826 6.881 1.831 9.436.159 1.383.005 2.555.04 3.581.036 1.026-.074 1.863-.331 2.51l-.198 1.507c-.234.48-.256.647-.256.647z" fill="#263238"/><path d="M162.778 35.804s.022-.167.212-.313c.19-.145.402-.458.95-.726.76-.58 2.213-1.24 4.169-1.834 3.892-1.02 9.922-1.418 17.687-.735 7.598.66 16.955 2.233 27.5 5.155 10.545 2.922 22.68 6.734 35.456 12.163 6.472 2.726 13.046 5.975 19.766 9.415 6.697 3.606 13.686 7.592 20.609 12.08 6.923 4.487 13.758 9.644 20.527 15.303 6.769 5.66 13.683 11.508 20.911 17.569 28.6 24.029 60.247 50.844 94.091 79.14l.313.212-.212.312c-11.53 13.635-23.653 27.873-35.987 42.424-12.334 14.55-24.457 28.788-35.987 42.423l-.212.313-.314-.212c-33.676-28.274-65.491-55.111-94.09-79.141-7.228-6.06-14.143-11.909-20.912-17.568-3.384-2.829-6.768-5.659-9.985-8.466-3.216-2.808-6.221-5.928-8.912-8.837-11.223-12.035-20.343-24.474-27.851-36.19-7.318-11.861-13.001-23.166-17.496-33.123-4.494-9.957-7.756-18.9-9.852-26.328-1.76-7.383-2.689-13.294-2.327-17.333.264-2.008.63-3.493 1.099-4.453.234-.48.445-.792.635-.937l.212-.313s-.402.458-.847 1.25c-.301.982-.835 2.445-.932 4.475-.361 4.039.568 9.95 2.664 17.378 2.095 7.427 5.379 16.203 9.874 26.16a289.63 289.63 0 0017.518 32.956c7.508 11.716 16.65 23.988 27.873 36.023 2.859 2.93 5.695 6.028 8.912 8.836 3.216 2.807 6.623 5.47 9.985 8.467 6.769 5.659 13.683 11.507 20.911 17.568 28.6 24.029 60.247 50.844 94.091 79.14l-.694.079c11.531-13.635 23.653-27.873 35.988-42.423 12.334-14.551 24.456-28.789 35.987-42.423l.08.691c-33.654-28.441-65.324-55.089-93.901-79.286-7.228-6.06-14.142-11.909-20.911-17.568-6.769-5.659-13.626-10.649-20.527-15.304-6.923-4.487-13.744-8.45-20.442-12.058-6.843-3.796-13.439-6.878-19.889-9.771-12.754-5.596-24.721-9.386-35.266-12.308-10.545-2.922-19.902-4.495-27.478-5.323-7.598-.66-13.605-.43-17.497.59-2.124.571-3.41 1.253-4.337 1.812-.76.581-1.162 1.039-1.162 1.039z" fill="#263238"/></g><defs><clipPath id="clip0"><path fill="#fff" d="M0 0h541v300H0z"/></clipPath></defs></svg>